<svg width="22" height="22" viewBox="0 0 22 22" fill="none" xmlns="http://www.w3.org/2000/svg">
<path d="M7.98048 10.434C8.46054 11.6055 10.1712 13.3546 11.488 12.4807C13.1568 11.3753 11.99 8.93898 10.8602 7.84145C10.5891 7.57167 10.2681 7.35852 9.91555 7.21415C9.56296 7.06979 9.1857 6.99705 8.8053 7.00009C8.4249 7.00313 8.04882 7.0819 7.69854 7.23188C7.34826 7.38186 7.03063 7.60012 6.76382 7.8742C6.73726 7.90105 6.71167 7.92887 6.68608 7.95703C5.78686 8.98711 5.85747 10.4559 6.40426 11.65C7.13057 13.3055 8.31159 14.7155 9.80711 15.7127C11.3163 16.695 13.2291 14.9357 14.0405 13.7809C14.6858 12.8517 17.3309 8.59682 15.1587 7.76483C13.563 7.15222 12.0509 8.9763 11.4922 10.2487C11.3697 10.5345 12.0866 10.2978 12.163 10.0781C13.2534 7.61356 15.137 8.90362 14.6793 10.9369C14.3537 12.3383 12.7208 15.5595 11.0649 14.9793C9.56384 14.4518 6.81856 10.9143 6.8895 9.05816C6.95591 7.3883 8.77896 7.68298 9.76208 8.56015C10.831 9.51688 11.8433 11.9405 10.9198 11.8465C9.99628 11.7525 9.11682 10.5846 8.77313 9.79289C8.70155 9.62918 7.87229 10.1462 7.98955 10.4301L7.98048 10.434Z" fill="white"/>
</svg>
