<svg width="22" height="22" viewBox="0 0 22 22" fill="none" xmlns="http://www.w3.org/2000/svg">
<path d="M1.39381 5.12782C2.48983 3.91828 7.97281 0.81949 10.1278 0.13199C10.671 -0.0361566 11.2538 -0.0438193 11.8015 0.109988C13.8654 0.731947 19.2786 3.77254 20.5417 5.05221C20.7919 5.3104 20.9788 5.61961 21.0885 5.95696C21.6188 7.61659 21.6373 13.8939 21.1398 15.8542C21.0167 16.3134 20.7653 16.7312 20.4131 17.0619C18.9416 18.4131 13.6727 21.3505 11.7265 21.9042C11.2344 22.0359 10.714 22.0317 10.2242 21.8923C8.27185 21.3143 3.18666 18.4846 1.64301 17.1096C1.25517 16.7595 0.979406 16.3093 0.848411 15.8125C0.357122 13.7697 0.386075 7.45891 0.931002 5.90058C1.03283 5.61685 1.18991 5.35456 1.39381 5.12782V5.12782Z" fill="#C0C0CA"/>
</svg>



